<svg width="84" height="40" viewBox="0 0 84 40" fill="none" xmlns="http://www.w3.org/2000/svg">
<path fill-rule="evenodd" clip-rule="evenodd" d="M49.6167 5C47.5577 6.17146 45.8469 7.8691 44.6597 9.91908C43.4725 11.9691 42.8514 14.2977 42.86 16.6667C42.86 24.03 48.73 30 55.97 30C57.88 30 59.6967 29.5833 61.3334 28.8367C58.65 32.5733 54.3117 35 49.415 35C41.27 35 34.6667 28.2833 34.6667 20C34.6667 11.7167 41.27 5 49.415 5H49.6167Z" fill="#FFD700"/>
<g filter="url(#filter0_d_125_174)">
<path d="M12.172 16.464C11.82 15.536 11.316 14.84 10.66 14.376C9.988 13.896 9.188 13.68 8.26 13.728C7.3 13.808 6.5 14.104 5.86 14.616C5.188 15.176 4.636 15.952 4.204 16.944C3.74 17.968 3.484 19.296 3.436 20.928C3.42 21.76 3.46 22.544 3.556 23.28C3.668 24 3.844 24.672 4.084 25.296C4.516 26.528 5.164 27.368 6.028 27.816C6.86 28.264 7.628 28.44 8.332 28.344C8.668 28.312 8.98 28.256 9.268 28.176C9.556 28.096 9.828 28 10.084 27.888C10.324 27.776 10.556 27.616 10.78 27.408C11.004 27.2 11.212 26.936 11.404 26.616C11.804 26.008 12.076 25.24 12.22 24.312C12.364 23.912 12.548 23.72 12.772 23.736C13.028 23.768 13.116 24.08 13.036 24.672C12.924 25.536 12.716 26.264 12.412 26.856C12.092 27.48 11.628 28.024 11.02 28.488C10.396 29.016 9.556 29.328 8.5 29.424C7.444 29.52 6.452 29.32 5.524 28.824C4.58 28.36 3.828 27.368 3.268 25.848C2.964 25.112 2.748 24.328 2.62 23.496C2.508 22.648 2.468 21.76 2.5 20.832C2.58 18.976 2.876 17.48 3.388 16.344C3.852 15.224 4.5 14.336 5.332 13.68C6.116 13.072 7.052 12.72 8.14 12.624C9.244 12.544 10.204 12.8 11.02 13.392C11.852 13.984 12.492 14.856 12.94 16.008C13.02 16.552 12.956 16.872 12.748 16.968C12.54 17.08 12.348 16.912 12.172 16.464ZM21.148 13.416C21.372 18.024 21.348 22.992 21.076 28.32C22.516 28.24 23.932 28.2 25.324 28.2C26.716 28.2 28.076 28.248 29.404 28.344C29.788 28.376 29.988 28.568 30.004 28.92C30.02 29.288 29.82 29.512 29.404 29.592C28.012 29.48 26.604 29.424 25.18 29.424C23.756 29.424 22.308 29.472 20.836 29.568C20.244 29.632 20.004 29.248 20.116 28.416C20.244 25.68 20.308 23.056 20.308 20.544C20.308 18.032 20.236 15.64 20.092 13.368C20.172 12.84 20.34 12.576 20.596 12.576C20.884 12.576 21.068 12.856 21.148 13.416ZM42.004 12.576C42.916 12.672 43.684 12.976 44.308 13.488C44.932 14 45.436 14.656 45.82 15.456C46.204 16.24 46.484 17.112 46.66 18.072C46.836 19.016 46.924 19.976 46.924 20.952C46.924 22.024 46.82 23.088 46.612 24.144C46.404 25.2 46.084 26.152 45.652 27C45.22 27.848 44.684 28.528 44.044 29.04C43.404 29.552 42.652 29.808 41.788 29.808C40.7 29.808 39.788 29.56 39.052 29.064C38.332 28.568 37.756 27.904 37.324 27.072C36.892 26.24 36.58 25.296 36.388 24.24C36.212 23.168 36.124 22.072 36.124 20.952C36.124 19.816 36.236 18.736 36.46 17.712C36.7 16.688 37.06 15.784 37.54 15C38.036 14.2 38.652 13.584 39.388 13.152C40.124 12.72 40.996 12.528 42.004 12.576ZM42.1 13.752C41.22 13.688 40.468 13.856 39.844 14.256C39.22 14.64 38.716 15.2 38.332 15.936C37.948 16.656 37.668 17.488 37.492 18.432C37.316 19.376 37.228 20.36 37.228 21.384C37.228 22.296 37.308 23.184 37.468 24.048C37.644 24.912 37.908 25.696 38.26 26.4C38.628 27.088 39.092 27.64 39.652 28.056C40.212 28.456 40.884 28.656 41.668 28.656C42.388 28.656 43.004 28.44 43.516 28.008C44.028 27.56 44.444 26.96 44.764 26.208C45.1 25.456 45.34 24.608 45.484 23.664C45.644 22.72 45.724 21.752 45.724 20.76C45.724 19.656 45.62 18.624 45.412 17.664C45.204 16.688 44.836 15.856 44.308 15.168C43.78 14.464 43.044 13.992 42.1 13.752ZM62.188 16.632C61.884 15.608 61.42 14.88 60.796 14.448C60.188 14 59.42 13.728 58.492 13.632C57.596 13.536 56.804 13.768 56.116 14.328C55.46 14.856 55.068 15.568 54.94 16.464C54.828 17.328 54.972 18.096 55.372 18.768C55.772 19.44 56.644 20.008 57.988 20.472C59.364 20.92 60.508 21.552 61.42 22.368C62.364 23.184 62.772 24.312 62.644 25.752C62.516 27.208 61.972 28.224 61.012 28.8C60.068 29.392 58.972 29.64 57.724 29.544C56.492 29.48 55.46 29.032 54.628 28.2C53.796 27.368 53.324 26.296 53.212 24.984C53.18 24.408 53.348 24.136 53.716 24.168C54.052 24.184 54.244 24.408 54.292 24.84C54.404 25.848 54.756 26.68 55.348 27.336C55.908 27.976 56.676 28.344 57.652 28.44C58.628 28.536 59.516 28.36 60.316 27.912C61.1 27.48 61.508 26.704 61.54 25.584C61.556 24.512 61.212 23.656 60.508 23.016C59.804 22.392 58.844 21.896 57.628 21.528C56.428 21.192 55.46 20.584 54.724 19.704C54.356 19.272 54.1 18.792 53.956 18.264C53.812 17.72 53.772 17.128 53.836 16.488C53.98 15.256 54.5 14.264 55.396 13.512C55.844 13.144 56.316 12.888 56.812 12.744C57.324 12.584 57.852 12.52 58.396 12.552C59.484 12.648 60.444 12.952 61.276 13.464C62.108 13.944 62.724 14.808 63.124 16.056C63.252 16.536 63.212 16.832 63.004 16.944C62.828 17.056 62.556 16.952 62.188 16.632ZM80.02 12.672C80.436 12.688 80.636 12.864 80.62 13.2C80.588 13.552 80.388 13.76 80.02 13.824L70.972 13.8L71.092 20.472L78.892 20.448C79.292 20.496 79.492 20.68 79.492 21C79.492 21.32 79.292 21.504 78.892 21.552L71.068 21.6L70.996 28.272L79.204 28.32C79.572 28.416 79.756 28.6 79.756 28.872C79.756 29.176 79.556 29.376 79.156 29.472C76.42 29.456 74.332 29.448 72.892 29.448C71.452 29.448 70.66 29.44 70.516 29.424C70.18 29.424 70.004 29.224 69.988 28.824C70.004 28.568 70.02 28.064 70.036 27.312C70.052 26.56 70.068 25.576 70.084 24.36C70.1 21.896 70.076 18.392 70.012 13.848C69.932 13.208 70.06 12.824 70.396 12.696L80.02 12.672Z" fill="white"/>
</g>
<defs>
<filter id="filter0_d_125_174" x="1.45203" y="11.504" width="82.192" height="21.304" filterUnits="userSpaceOnUse" color-interpolation-filters="sRGB">
<feFlood flood-opacity="0" result="BackgroundImageFix"/>
<feColorMatrix in="SourceAlpha" type="matrix" values="0 0 0 0 0 0 0 0 0 0 0 0 0 0 0 0 0 0 127 0" result="hardAlpha"/>
<feOffset dx="1" dy="1"/>
<feGaussianBlur stdDeviation="1"/>
<feComposite in2="hardAlpha" operator="out"/>
<feColorMatrix type="matrix" values="0 0 0 0 0 0 0 0 0 0 0 0 0 0 0 0 0 0 1 0"/>
<feBlend mode="normal" in2="BackgroundImageFix" result="effect1_dropShadow_125_174"/>
<feBlend mode="normal" in="SourceGraphic" in2="effect1_dropShadow_125_174" result="shape"/>
</filter>
</defs>
</svg>
