<svg width="49" height="50" viewBox="0 0 49 50" fill="none" xmlns="http://www.w3.org/2000/svg">
<path d="M0.5 45.0385V4.21154C0.5 3.22718 0.891036 2.28313 1.58708 1.58708C2.28313 0.891036 3.22718 0.5 4.21154 0.5H45.0385C46.0228 0.5 46.9669 0.891036 47.6629 1.58708C48.359 2.28313 48.75 3.22718 48.75 4.21154V45.0385C48.75 46.0228 48.359 46.9669 47.6629 47.6629C46.9669 48.359 46.0228 48.75 45.0385 48.75H33.9038V31.1573H36.539C37.1395 31.1573 37.7154 30.9188 38.1399 30.4942C38.5645 30.0696 38.8031 29.4937 38.8031 28.8933V26.0354C38.8031 25.4349 38.5645 24.8591 38.1399 24.4345C37.7154 24.0099 37.1395 23.7713 36.539 23.7713H34.0523V20.2825C34.0523 17.1648 35.4627 17.1648 36.8731 17.1648H38.6917C38.9904 17.1771 39.2882 17.1237 39.564 17.0082C39.8398 16.8928 40.0868 16.7182 40.2877 16.4967C40.5034 16.2914 40.6741 16.0435 40.7891 15.7688C40.9041 15.4941 40.9608 15.1985 40.9558 14.9008V12.1542C40.9657 11.852 40.9159 11.5508 40.8093 11.2678C40.7027 10.9848 40.5414 10.7256 40.3346 10.505C40.1278 10.2844 39.8795 10.1067 39.604 9.9821C39.3285 9.85751 39.0311 9.78844 38.7288 9.77884H34.4606C33.2152 9.73202 31.9744 9.95611 30.8241 10.4356C29.6737 10.9151 28.6411 11.6387 27.7977 12.5562C26.9543 13.4737 26.3201 14.5634 25.9389 15.75C25.5577 16.9366 25.4387 18.1918 25.59 19.4288V23.7713H23.2146C22.9142 23.7664 22.6158 23.8213 22.3368 23.9329C22.0578 24.0445 21.8038 24.2105 21.5896 24.4212C21.3755 24.6319 21.2054 24.8832 21.0893 25.1603C20.9732 25.4374 20.9134 25.7349 20.9135 26.0354V28.8933C20.9134 29.1937 20.9732 29.4912 21.0893 29.7683C21.2054 30.0455 21.3755 30.2967 21.5896 30.5074C21.8038 30.7182 22.0578 30.8842 22.3368 30.9957C22.6158 31.1073 22.9142 31.1622 23.2146 31.1573H25.59V48.75H4.21154C3.22718 48.75 2.28313 48.359 1.58708 47.6629C0.891036 46.9669 0.5 46.0228 0.5 45.0385Z" fill="#D7E0FF"/>
<path d="M0.5 45.0385V4.21154C0.5 3.22718 0.891036 2.28313 1.58708 1.58708C2.28313 0.891036 3.22718 0.5 4.21154 0.5H45.0385C46.0228 0.5 46.9669 0.891036 47.6629 1.58708C48.359 2.28313 48.75 3.22718 48.75 4.21154V45.0385C48.75 46.0228 48.359 46.9669 47.6629 47.6629C46.9669 48.359 46.0228 48.75 45.0385 48.75H33.9038V31.1573H36.539C37.1395 31.1573 37.7154 30.9188 38.1399 30.4942C38.5645 30.0696 38.8031 29.4937 38.8031 28.8933V26.0354C38.8031 25.4349 38.5645 24.8591 38.1399 24.4345C37.7154 24.0099 37.1395 23.7713 36.539 23.7713H34.0523V20.2825C34.0523 17.1648 35.4627 17.1648 36.8731 17.1648H38.6917C38.9904 17.1771 39.2882 17.1237 39.564 17.0082C39.8398 16.8928 40.0868 16.7182 40.2877 16.4967C40.5034 16.2914 40.6741 16.0435 40.7891 15.7688C40.9041 15.4941 40.9609 15.1985 40.9558 14.9008V12.1542C40.9657 11.852 40.9159 11.5508 40.8093 11.2678C40.7027 10.9848 40.5414 10.7256 40.3346 10.505C40.1278 10.2844 39.8795 10.1067 39.604 9.9821C39.3285 9.85751 39.0311 9.78844 38.7288 9.77884H34.4606C33.2152 9.73202 31.9744 9.95611 30.8241 10.4356C29.6737 10.9151 28.6411 11.6387 27.7977 12.5562C26.9543 13.4737 26.3201 14.5634 25.9389 15.75C25.5577 16.9366 25.4387 18.1918 25.59 19.4288V23.7713H23.2146C22.9142 23.7664 22.6158 23.8213 22.3368 23.9329C22.0578 24.0445 21.8038 24.2105 21.5896 24.4212C21.3755 24.6319 21.2054 24.8832 21.0893 25.1603C20.9732 25.4374 20.9134 25.7349 20.9135 26.0354V28.8933C20.9134 29.1937 20.9732 29.4912 21.0893 29.7683C21.2054 30.0455 21.3755 30.2967 21.5896 30.5074C21.8038 30.7182 22.0578 30.8842 22.3368 30.9957C22.6158 31.1073 22.9142 31.1622 23.2146 31.1573H25.59V48.75H4.21154C3.22718 48.75 2.28313 48.359 1.58708 47.6629C0.891036 46.9669 0.5 46.0228 0.5 45.0385Z" stroke="#4147D5" stroke-linecap="round" stroke-linejoin="round"/>
</svg>
