<svg width="46" height="46" viewBox="0 0 46 46" fill="none" xmlns="http://www.w3.org/2000/svg">
<path fill-rule="evenodd" clip-rule="evenodd" d="M10.0531 0.5C8.79899 0.5 7.55717 0.747012 6.39854 1.22693C5.2399 1.70686 4.18714 2.41029 3.30036 3.29707C1.50943 5.088 0.503296 7.51702 0.503296 10.0498V35.5184C0.503296 38.0511 1.50943 40.4801 3.30036 42.2711C4.18714 43.1579 5.2399 43.8613 6.39854 44.3412C7.55717 44.8211 8.79899 45.0681 10.0531 45.0681H35.5217C38.0544 45.0681 40.4834 44.062 42.2744 42.2711C44.0653 40.4801 45.0714 38.0511 45.0714 35.5184V10.0461C45.0705 7.51396 44.0639 5.08588 42.2731 3.29576C40.4822 1.50563 38.0538 0.5 35.5217 0.5H10.0531ZM22.7874 32.2485C25.2975 32.2485 27.7048 31.2513 29.4797 29.4764C31.2546 27.7015 32.2518 25.2942 32.2518 22.7841C32.2518 20.274 31.2546 17.8666 29.4797 16.0917C27.7048 14.3168 25.2975 13.3196 22.7874 13.3196C20.2772 13.3196 17.8699 14.3168 16.095 16.0917C14.3201 17.8666 13.3229 20.274 13.3229 22.7841C13.3229 25.2942 14.3201 27.7015 16.095 29.4764C17.8699 31.2513 20.2772 32.2485 22.7874 32.2485Z" fill="#D7E0FF"/>
<path d="M13.3234 22.7838C13.3234 24.0266 13.5682 25.2574 14.0438 26.4056C14.5194 27.5539 15.2166 28.5973 16.0954 29.4761C16.9743 30.355 18.0176 31.0521 19.1659 31.5277C20.3142 32.0034 21.5449 32.2482 22.7878 32.2482C24.0307 32.2482 25.2614 32.0034 26.4097 31.5277C27.5579 31.0521 28.6013 30.355 29.4801 29.4761C30.359 28.5973 31.0561 27.5539 31.5318 26.4056C32.0074 25.2574 32.2522 24.0266 32.2522 22.7838C32.2522 20.2736 31.2551 17.8663 29.4801 16.0914C27.7052 14.3165 25.2979 13.3193 22.7878 13.3193C20.2777 13.3193 17.8704 14.3165 16.0954 16.0914C14.3205 17.8663 13.3234 20.2736 13.3234 22.7838Z" fill="white"/>
<path d="M13.3234 22.7838C13.3234 24.0266 13.5682 25.2574 14.0438 26.4056C14.5194 27.5539 15.2166 28.5973 16.0954 29.4761C16.9743 30.355 18.0176 31.0521 19.1659 31.5277C20.3142 32.0034 21.5449 32.2482 22.7878 32.2482C24.0307 32.2482 25.2614 32.0034 26.4097 31.5277C27.5579 31.0521 28.6013 30.355 29.4801 29.4761C30.359 28.5973 31.0561 27.5539 31.5318 26.4056C32.0074 25.2574 32.2522 24.0266 32.2522 22.7838C32.2522 20.2736 31.2551 17.8663 29.4801 16.0914C27.7052 14.3165 25.2979 13.3193 22.7878 13.3193C20.2777 13.3193 17.8704 14.3165 16.0954 16.0914C14.3205 17.8663 13.3234 20.2736 13.3234 22.7838Z" stroke="#4147D5" stroke-linecap="round" stroke-linejoin="round"/>
<path d="M0.503711 10.0498C0.503711 7.51702 1.50985 5.088 3.30078 3.29707C5.09171 1.50614 7.52074 0.5 10.0535 0.5H35.5221C36.7762 0.5 38.018 0.747012 39.1766 1.22693C40.3352 1.70686 41.388 2.41029 42.2748 3.29707C43.1616 4.18385 43.865 5.23661 44.3449 6.39524C44.8248 7.55387 45.0719 8.79569 45.0719 10.0498V35.5184C45.0719 38.0511 44.0657 40.4801 42.2748 42.2711C40.4839 44.062 38.0548 45.0681 35.5221 45.0681H10.0498C7.51703 45.0681 5.088 44.062 3.29707 42.2711C1.50614 40.4801 0.5 38.0511 0.5 35.5184L0.503711 10.0498Z" stroke="#4147D5" stroke-linecap="round" stroke-linejoin="round"/>
<path d="M35.6706 10.8401C35.4245 10.8401 35.1885 10.7424 35.0144 10.5684C34.8404 10.3944 34.7427 10.1583 34.7427 9.91226C34.7427 9.66617 34.8404 9.43016 35.0144 9.25615C35.1885 9.08213 35.4245 8.98438 35.6706 8.98438M35.6706 10.8401C35.9167 10.8401 36.1527 10.7424 36.3267 10.5684C36.5007 10.3944 36.5984 10.1583 36.5984 9.91226C36.5984 9.66617 36.5007 9.43016 36.3267 9.25615C36.1527 9.08213 35.9167 8.98438 35.6706 8.98438" stroke="#4147D5" stroke-linecap="round" stroke-linejoin="round"/>
</svg>
