<svg width="69" height="36" viewBox="0 0 69 36" fill="none" xmlns="http://www.w3.org/2000/svg">
<g clip-path="url(#clip0_14_43)">
<path d="M33 2C33 2 33 0 35 0C37 0 37 2 37 2V4C37 4 37 6 35 6C33 6 33 4 33 4V2ZM51 16C51 16 53 16 53 18C53 20 51 20 51 20H49C49 20 47 20 47 18C47 16 49 16 49 16H51ZM21 16C21 16 23 16 23 18C23 20 21 20 21 20H19C19 20 17 20 17 18C17 16 19 16 19 16H21ZM26.121 7.293C26.121 7.293 27.535 8.707 26.121 10.121C24.707 11.535 23.293 10.121 23.293 10.121L21.878 8.708C21.878 8.708 20.464 7.294 21.878 5.879C23.293 4.465 24.707 5.879 24.707 5.879L26.121 7.293ZM47.121 28.293C47.121 28.293 48.535 29.707 47.121 31.121C45.707 32.535 44.293 31.121 44.293 31.121L42.879 29.707C42.879 29.707 41.465 28.293 42.879 26.879C44.293 25.465 45.707 26.879 45.707 26.879L47.121 28.293ZM46.708 10.121C46.708 10.121 45.294 11.535 43.88 10.121C42.466 8.707 43.88 7.293 43.88 7.293L45.294 5.879C45.294 5.879 46.708 4.465 48.122 5.879C49.536 7.293 48.122 8.707 48.122 8.707L46.708 10.121ZM25.708 31.121C25.708 31.121 24.294 32.535 22.88 31.121C21.466 29.707 22.88 28.293 22.88 28.293L24.294 26.879C24.294 26.879 25.708 25.465 27.122 26.879C28.536 28.293 27.122 29.707 27.122 29.707L25.708 31.121ZM33 32C33 32 33 30 35 30C37 30 37 32 37 32V34C37 34 37 36 35 36C33 36 33 34 33 34V32Z" fill="#FFAC33"/>
<path d="M35 28C40.5228 28 45 23.5228 45 18C45 12.4772 40.5228 8 35 8C29.4772 8 25 12.4772 25 18C25 23.5228 29.4772 28 35 28Z" fill="#FFAC33"/>
</g>
<g filter="url(#filter0_d_14_43)">
<path d="M14.004 26.152C13.988 27.08 13.82 27.528 13.5 27.496C13.164 27.496 12.996 27.248 12.996 26.752C12.932 24.336 12.916 22.064 12.948 19.936C12.996 17.792 13.076 15.792 13.188 13.936C11.14 20.528 10.012 23.928 9.804 24.136C9.596 24.36 9.412 24.392 9.252 24.232C9.06 24.088 7.812 20.712 5.508 14.104C5.604 15.704 5.66 17.568 5.676 19.696C5.708 21.808 5.692 24.2 5.628 26.872C5.612 27.416 5.444 27.688 5.124 27.688C4.836 27.688 4.668 27.44 4.62 26.944C4.684 21.52 4.66 17.6 4.548 15.184C4.436 12.768 4.412 11.392 4.476 11.056C4.556 10.72 4.684 10.584 4.86 10.648C5.068 10.728 5.3 10.984 5.556 11.416L9.492 21.784C10.532 18.648 11.364 16.168 11.988 14.344C12.612 12.52 13.036 11.352 13.26 10.84C13.836 10.6 14.172 10.736 14.268 11.248C14.14 14.176 14.052 16.88 14.004 19.36C13.956 21.84 13.956 24.104 14.004 26.152ZM31.02 10.672C31.436 10.688 31.636 10.864 31.62 11.2C31.588 11.552 31.388 11.76 31.02 11.824L21.972 11.8L22.092 18.472L29.892 18.448C30.292 18.496 30.492 18.68 30.492 19C30.492 19.32 30.292 19.504 29.892 19.552L22.068 19.6L21.996 26.272L30.204 26.32C30.572 26.416 30.756 26.6 30.756 26.872C30.756 27.176 30.556 27.376 30.156 27.472C27.42 27.456 25.332 27.448 23.892 27.448C22.452 27.448 21.66 27.44 21.516 27.424C21.18 27.424 21.004 27.224 20.988 26.824C21.004 26.568 21.02 26.064 21.036 25.312C21.052 24.56 21.068 23.576 21.084 22.36C21.1 19.896 21.076 16.392 21.012 11.848C20.932 11.208 21.06 10.824 21.396 10.696L31.02 10.672ZM47.916 11.104C47.676 13.568 47.484 16.136 47.34 18.808C47.212 21.464 47.132 24.224 47.1 27.088C46.796 27.472 46.5 27.488 46.212 27.136C45.908 26.8 43.556 21.976 39.156 12.664C39.236 14.376 39.292 16.416 39.324 18.784C39.356 21.136 39.364 23.816 39.348 26.824C39.348 27.352 39.172 27.616 38.82 27.616C38.484 27.632 38.316 27.408 38.316 26.944C38.332 23.68 38.324 20.992 38.292 18.88C38.26 16.768 38.212 15.248 38.148 14.32C38.004 12.448 38.028 11.344 38.22 11.008C38.38 10.704 38.636 10.64 38.988 10.816C39.164 10.928 39.316 11.048 39.444 11.176C39.572 11.304 39.684 11.44 39.78 11.584C39.876 11.744 40.444 12.896 41.484 15.04C42.54 17.168 44.068 20.288 46.068 24.4C46.084 22.432 46.156 20.336 46.284 18.112C46.412 15.872 46.58 13.52 46.788 11.056C46.852 10.56 47.052 10.328 47.388 10.36C47.692 10.408 47.868 10.656 47.916 11.104ZM56.46 11.272C56.428 12.888 56.412 14.408 56.412 15.832C56.412 17.256 56.436 18.568 56.484 19.768C56.548 22.184 56.852 23.896 57.396 24.904C57.956 25.912 58.796 26.384 59.916 26.32C61.052 26.272 61.876 25.776 62.388 24.832C62.884 23.92 63.204 22.624 63.348 20.944C63.46 19.312 63.532 17.808 63.564 16.432C63.58 15.744 63.58 15 63.564 14.2C63.564 13.384 63.548 12.496 63.516 11.536C63.58 10.976 63.788 10.704 64.14 10.72C64.492 10.752 64.652 11.024 64.62 11.536C64.652 12.512 64.668 13.416 64.668 14.248C64.684 15.064 64.684 15.816 64.668 16.504C64.652 17.88 64.556 19.52 64.38 21.424C64.22 23.312 63.788 24.784 63.084 25.84C62.332 26.912 61.3 27.472 59.988 27.52C58.628 27.6 57.564 27.112 56.796 26.056C56.412 25.528 56.1 24.792 55.86 23.848C55.636 22.888 55.492 21.728 55.428 20.368C55.284 17.6 55.26 14.544 55.356 11.2C55.42 10.72 55.612 10.48 55.932 10.48C56.236 10.48 56.412 10.744 56.46 11.272Z" fill="#FF3C00"/>
</g>
<defs>
<filter id="filter0_d_14_43" x="3.38" y="9.312" width="64.312" height="21.376" filterUnits="userSpaceOnUse" color-interpolation-filters="sRGB">
<feFlood flood-opacity="0" result="BackgroundImageFix"/>
<feColorMatrix in="SourceAlpha" type="matrix" values="0 0 0 0 0 0 0 0 0 0 0 0 0 0 0 0 0 0 127 0" result="hardAlpha"/>
<feOffset dx="1" dy="1"/>
<feGaussianBlur stdDeviation="1"/>
<feComposite in2="hardAlpha" operator="out"/>
<feColorMatrix type="matrix" values="0 0 0 0 0.302885 0 0 0 0 0.292691 0 0 0 0 0.292691 0 0 0 1 0"/>
<feBlend mode="normal" in2="BackgroundImageFix" result="effect1_dropShadow_14_43"/>
<feBlend mode="normal" in="SourceGraphic" in2="effect1_dropShadow_14_43" result="shape"/>
</filter>
<clipPath id="clip0_14_43">
<rect width="36" height="36" fill="white" transform="translate(17)"/>
</clipPath>
</defs>
</svg>
