<svg width="47" height="32" viewBox="0 0 47 32" fill="none" xmlns="http://www.w3.org/2000/svg">
<path d="M8 2L9.56667 5.84L13.7067 6.14667L10.5333 8.82667L11.5267 12.8533L8 10.6667L4.47333 12.8533L5.46667 8.82667L2.29333 6.14667L6.43333 5.84L8 2Z" fill="#FFD700"/>
<path d="M8 2L6.43333 5.84L2.29333 6.14667L5.46667 8.82667L4.47333 12.8533L8 10.6667M8 2L9.56667 5.84L13.7067 6.14667L10.5333 8.82667L11.5267 12.8533L8 10.6667" stroke="#FFD700" stroke-width="2" stroke-linecap="round" stroke-linejoin="round"/>
<path d="M39 18L40.5667 21.84L44.7067 22.1467L41.5333 24.8267L42.5267 28.8533L39 26.6667L35.4733 28.8533L36.4667 24.8267L33.2933 22.1467L37.4333 21.84L39 18Z" fill="#FFD700"/>
<path d="M39 18L37.4333 21.84L33.2933 22.1467L36.4667 24.8267L35.4733 28.8533L39 26.6667M39 18L40.5667 21.84L44.7067 22.1467L41.5333 24.8267L42.5267 28.8533L39 26.6667" stroke="#FFD700" stroke-width="2" stroke-linecap="round" stroke-linejoin="round"/>
</svg>
