<svg width="48" height="48" viewBox="0 0 48 48" fill="none" xmlns="http://www.w3.org/2000/svg">
<path fill-rule="evenodd" clip-rule="evenodd" d="M8.66025 0C6.36341 0 4.16064 0.912417 2.53653 2.53653C0.912417 4.16064 0 6.36341 0 8.66025V38.9711C0 41.268 0.912417 43.4708 2.53653 45.0949C4.16064 46.719 6.36341 47.6314 8.66025 47.6314H38.9711C41.268 47.6314 43.4708 46.719 45.0949 45.0949C46.719 43.4708 47.6314 41.268 47.6314 38.9711V8.66025C47.6314 6.36341 46.719 4.16064 45.0949 2.53653C43.4708 0.912417 41.268 0 38.9711 0H8.66025ZM7.93712 7.57772C7.70012 7.6658 7.48695 7.80801 7.31461 7.99302C7.14227 8.17803 7.01552 8.40073 6.94445 8.64338C6.87338 8.88603 6.85995 9.14193 6.90525 9.39068C6.95054 9.63944 7.0533 9.87418 7.20533 10.0762L19.36 26.2059L6.55365 39.9433L6.45838 40.0537H10.8903L21.3475 28.8408L29.3842 39.5102C29.5707 39.7572 29.8238 39.9458 30.1139 40.0537H39.6878C39.9244 39.9651 40.1372 39.8226 40.309 39.6374C40.4809 39.4522 40.6072 39.2294 40.6778 38.9868C40.7484 38.7442 40.7615 38.4885 40.7159 38.2399C40.6703 37.9914 40.5674 37.7569 40.4152 37.5552L28.2606 21.4255L41.173 7.57772H36.7346L26.2774 18.7928L18.2363 8.12332C18.0502 7.87555 17.797 7.68624 17.5067 7.57772H7.93712ZM31.493 36.91L11.7585 10.7214H16.1297L35.8621 36.9078L31.493 36.91Z" fill="white"/>
</svg>
